<?xml version="1.0" encoding="UTF-8" standalone="no"?>
<!-- Created with Inkscape (http://www.inkscape.org/) -->

<svg
   xmlns:dc="http://purl.org/dc/elements/1.1/"
   xmlns:cc="http://creativecommons.org/ns#"
   xmlns:rdf="http://www.w3.org/1999/02/22-rdf-syntax-ns#"
   xmlns:svg="http://www.w3.org/2000/svg"
   xmlns="http://www.w3.org/2000/svg"
   xmlns:xlink="http://www.w3.org/1999/xlink"
   xmlns:sodipodi="http://sodipodi.sourceforge.net/DTD/sodipodi-0.dtd"
   xmlns:inkscape="http://www.inkscape.org/namespaces/inkscape"
   width="210mm"
   height="297mm"
   id="svg2"
   version="1.1"
   inkscape:version="0.48.2 r9819"
   sodipodi:docname="Nieuw document 1">
  <defs
     id="defs4">
    <linearGradient
       id="linearGradient3935">
      <stop
         style="stop-color:#2fde00;stop-opacity:1;"
         offset="0"
         id="stop3937" />
      <stop
         style="stop-color:#42ff10;stop-opacity:1;"
         offset="1"
         id="stop3939" />
    </linearGradient>
    <linearGradient
       id="linearGradient3768">
      <stop
         style="stop-color:#b6b6b6;stop-opacity:1;"
         offset="0"
         id="stop3770" />
      <stop
         style="stop-color:#ebebeb;stop-opacity:1;"
         offset="1"
         id="stop3772" />
    </linearGradient>
    <linearGradient
       inkscape:collect="always"
       xlink:href="#linearGradient3768"
       id="linearGradient3774"
       x1="225.28125"
       y1="193.48438"
       x2="466.69147"
       y2="195.50468"
       gradientUnits="userSpaceOnUse"
       gradientTransform="matrix(0.42859639,0,0,0.42859639,116.12129,654.6233)" />
    <linearGradient
       inkscape:collect="always"
       xlink:href="#linearGradient3768"
       id="linearGradient3782"
       gradientUnits="userSpaceOnUse"
       x1="225.28125"
       y1="193.48438"
       x2="466.69147"
       y2="195.50468"
       gradientTransform="matrix(0.42859639,0,0,0.42859639,116.12129,628.90752)" />
    <linearGradient
       inkscape:collect="always"
       xlink:href="#linearGradient3768"
       id="linearGradient3790"
       gradientUnits="userSpaceOnUse"
       gradientTransform="matrix(0.42859639,0,0,0.42859639,116.12129,603.19173)"
       x1="225.28125"
       y1="193.48438"
       x2="466.69147"
       y2="195.50468" />
    <linearGradient
       inkscape:collect="always"
       xlink:href="#linearGradient3768"
       id="linearGradient3862"
       gradientUnits="userSpaceOnUse"
       gradientTransform="matrix(0.42859639,0,0,0.42859639,116.12129,654.6233)"
       x1="225.28125"
       y1="193.48438"
       x2="466.69147"
       y2="195.50468" />
    <linearGradient
       inkscape:collect="always"
       xlink:href="#linearGradient3768"
       id="linearGradient3864"
       gradientUnits="userSpaceOnUse"
       gradientTransform="matrix(0.42859639,0,0,0.42859639,116.12129,628.90752)"
       x1="225.28125"
       y1="193.48438"
       x2="466.69147"
       y2="195.50468" />
    <linearGradient
       inkscape:collect="always"
       xlink:href="#linearGradient3768"
       id="linearGradient3866"
       gradientUnits="userSpaceOnUse"
       gradientTransform="matrix(0.42859639,0,0,0.42859639,116.12129,603.19173)"
       x1="225.28125"
       y1="193.48438"
       x2="466.69147"
       y2="195.50468" />
    <linearGradient
       inkscape:collect="always"
       xlink:href="#linearGradient3768"
       id="linearGradient3890"
       gradientUnits="userSpaceOnUse"
       gradientTransform="matrix(0.42859639,0,0,0.42859639,116.12129,654.6233)"
       x1="225.28125"
       y1="193.48438"
       x2="466.69147"
       y2="195.50468" />
    <linearGradient
       inkscape:collect="always"
       xlink:href="#linearGradient3768"
       id="linearGradient3892"
       gradientUnits="userSpaceOnUse"
       gradientTransform="matrix(0.42859639,0,0,0.42859639,116.12129,628.90752)"
       x1="225.28125"
       y1="193.48438"
       x2="466.69147"
       y2="195.50468" />
    <linearGradient
       inkscape:collect="always"
       xlink:href="#linearGradient3768"
       id="linearGradient3894"
       gradientUnits="userSpaceOnUse"
       gradientTransform="matrix(0.42859639,0,0,0.42859639,116.12129,603.19173)"
       x1="225.28125"
       y1="193.48438"
       x2="466.69147"
       y2="195.50468" />
    <linearGradient
       inkscape:collect="always"
       xlink:href="#linearGradient3768"
       id="linearGradient3918"
       gradientUnits="userSpaceOnUse"
       gradientTransform="matrix(0.42859639,0,0,0.42859639,116.12129,654.6233)"
       x1="225.28125"
       y1="193.48438"
       x2="466.69147"
       y2="195.50468" />
    <linearGradient
       inkscape:collect="always"
       xlink:href="#linearGradient3768"
       id="linearGradient3920"
       gradientUnits="userSpaceOnUse"
       gradientTransform="matrix(0.42859639,0,0,0.42859639,116.12129,628.90752)"
       x1="225.28125"
       y1="193.48438"
       x2="466.69147"
       y2="195.50468" />
    <linearGradient
       inkscape:collect="always"
       xlink:href="#linearGradient3768"
       id="linearGradient3922"
       gradientUnits="userSpaceOnUse"
       gradientTransform="matrix(0.42859639,0,0,0.42859639,116.12129,603.19173)"
       x1="225.28125"
       y1="193.48438"
       x2="466.69147"
       y2="195.50468" />
    <linearGradient
       inkscape:collect="always"
       xlink:href="#linearGradient3935"
       id="linearGradient3941"
       x1="274.28571"
       y1="365.9336"
       x2="330"
       y2="365.9336"
       gradientUnits="userSpaceOnUse" />
    <linearGradient
       inkscape:collect="always"
       xlink:href="#linearGradient3935"
       id="linearGradient3953"
       gradientUnits="userSpaceOnUse"
       x1="274.28571"
       y1="365.9336"
       x2="330"
       y2="365.9336"
       gradientTransform="translate(160,0)" />
  </defs>
  <sodipodi:namedview
     id="base"
     pagecolor="#ffffff"
     bordercolor="#666666"
     borderopacity="1.0"
     inkscape:pageopacity="0.0"
     inkscape:pageshadow="2"
     inkscape:zoom="0.98994949"
     inkscape:cx="373.68806"
     inkscape:cy="445.3514"
     inkscape:document-units="px"
     inkscape:current-layer="layer1"
     showgrid="false"
     inkscape:window-width="1280"
     inkscape:window-height="971"
     inkscape:window-x="0"
     inkscape:window-y="25"
     inkscape:window-maximized="1" />
  <metadata
     id="metadata7">
    <rdf:RDF>
      <cc:Work
         rdf:about="">
        <dc:format>image/svg+xml</dc:format>
        <dc:type
           rdf:resource="http://purl.org/dc/dcmitype/StillImage" />
        <dc:title></dc:title>
      </cc:Work>
    </rdf:RDF>
  </metadata>
  <g
     inkscape:label="Laag 1"
     inkscape:groupmode="layer"
     id="layer1">
    <g
       id="g3794"
       inkscape:export-filename="/home/stijn/Bureaublad/PySphereGTK/store-128.png"
       inkscape:export-xdpi="44"
       inkscape:export-ydpi="44">
      <rect
         y="641.49915"
         x="206.07112"
         height="126"
         width="126"
         id="rect3792"
         style="fill:#ffffff;fill-opacity:1;stroke:#ffffff;stroke-width:2;stroke-linecap:round;stroke-linejoin:round;stroke-miterlimit:4;stroke-opacity:1;stroke-dasharray:none;stroke-dashoffset:0" />
      <path
         transform="matrix(0.42859639,0,0,0.42859639,116.12129,654.62331)"
         d="m 480.83263,158.37718 c 0,11.71573 -56.98485,21.21321 -127.27922,21.21321 -70.29438,0 -127.27922,-9.49748 -127.27922,-21.21321 0,-11.71573 56.98484,-21.2132 127.27922,-21.2132 70.29437,0 127.27922,9.49747 127.27922,21.2132 z"
         sodipodi:ry="21.213203"
         sodipodi:rx="127.27922"
         sodipodi:cy="158.37718"
         sodipodi:cx="353.55341"
         id="path2985"
         style="fill:#cccccc;stroke:#a8a8a8;stroke-width:4.66639471;stroke-linecap:round;stroke-linejoin:round;stroke-miterlimit:4;stroke-opacity:1;stroke-dasharray:none;stroke-dashoffset:0"
         sodipodi:type="arc" />
      <path
         style="fill:url(#linearGradient3774);fill-opacity:1;stroke:#a8a8a8;stroke-width:2;stroke-linecap:round;stroke-linejoin:round;stroke-miterlimit:4;stroke-opacity:1;stroke-dasharray:none;stroke-dashoffset:0"
         d="m 213.10462,722.93085 0,20.14403 0,0.76344 0.20091,0 c 2.34337,4.66125 25.77821,8.33084 54.35137,8.33084 28.57317,0 52.008,-3.66959 54.35138,-8.33084 l 0.0938,0 0,-0.2143 c 0.065,-0.18171 0.10715,-0.3647 0.10715,-0.54914 0,-0.18443 -0.0421,-0.36742 -0.10715,-0.54914 l 0,-19.59489 z"
         id="path3760"
         inkscape:connector-curvature="0"
         sodipodi:nodetypes="ccccscccsccc" />
      <path
         transform="matrix(0.42859639,0,0,0.42859639,116.12129,654.62331)"
         sodipodi:type="arc"
         style="fill:#cccccc;stroke:#a8a8a8;stroke-width:4.66639471;stroke-linecap:round;stroke-linejoin:round;stroke-miterlimit:4;stroke-opacity:1;stroke-dasharray:none;stroke-dashoffset:0"
         id="path3762"
         sodipodi:cx="353.55341"
         sodipodi:cy="158.37718"
         sodipodi:rx="127.27922"
         sodipodi:ry="21.213203"
         d="m 480.83263,158.37718 c 0,11.71573 -56.98485,21.21321 -127.27922,21.21321 -70.29438,0 -127.27922,-9.49748 -127.27922,-21.21321 0,-11.71573 56.98484,-21.2132 127.27922,-21.2132 70.29437,0 127.27922,9.49747 127.27922,21.2132 z" />
      <path
         transform="matrix(0.42859639,0,0,0.42859639,116.12129,628.90752)"
         sodipodi:type="arc"
         style="fill:#cccccc;stroke:#a8a8a8;stroke-width:4.66639471;stroke-linecap:round;stroke-linejoin:round;stroke-miterlimit:4;stroke-opacity:1;stroke-dasharray:none;stroke-dashoffset:0"
         id="path3776"
         sodipodi:cx="353.55341"
         sodipodi:cy="158.37718"
         sodipodi:rx="127.27922"
         sodipodi:ry="21.213203"
         d="m 480.83263,158.37718 c 0,11.71573 -56.98485,21.21321 -127.27922,21.21321 -70.29438,0 -127.27922,-9.49748 -127.27922,-21.21321 0,-11.71573 56.98484,-21.2132 127.27922,-21.2132 70.29437,0 127.27922,9.49747 127.27922,21.2132 z" />
      <path
         sodipodi:nodetypes="ccccscccsccc"
         inkscape:connector-curvature="0"
         id="path3778"
         d="m 213.10462,697.21507 0,20.14403 0,0.76344 0.20091,0 c 2.34337,4.66125 25.77821,8.33084 54.35137,8.33084 28.57317,0 52.008,-3.66959 54.35138,-8.33084 l 0.0938,0 0,-0.2143 c 0.065,-0.18172 0.10715,-0.36471 0.10715,-0.54914 0,-0.18444 -0.0421,-0.36743 -0.10715,-0.54914 l 0,-19.59489 z"
         style="fill:url(#linearGradient3782);fill-opacity:1;stroke:#a8a8a8;stroke-width:2;stroke-linecap:round;stroke-linejoin:round;stroke-miterlimit:4;stroke-opacity:1;stroke-dasharray:none;stroke-dashoffset:0" />
      <path
         transform="matrix(0.42859639,0,0,0.42859639,116.12129,628.90752)"
         d="m 480.83263,158.37718 c 0,11.71573 -56.98485,21.21321 -127.27922,21.21321 -70.29438,0 -127.27922,-9.49748 -127.27922,-21.21321 0,-11.71573 56.98484,-21.2132 127.27922,-21.2132 70.29437,0 127.27922,9.49747 127.27922,21.2132 z"
         sodipodi:ry="21.213203"
         sodipodi:rx="127.27922"
         sodipodi:cy="158.37718"
         sodipodi:cx="353.55341"
         id="path3780"
         style="fill:#cccccc;stroke:#a8a8a8;stroke-width:4.66639471;stroke-linecap:round;stroke-linejoin:round;stroke-miterlimit:4;stroke-opacity:1;stroke-dasharray:none;stroke-dashoffset:0"
         sodipodi:type="arc" />
      <path
         d="m 480.83263,158.37718 c 0,11.71573 -56.98485,21.21321 -127.27922,21.21321 -70.29438,0 -127.27922,-9.49748 -127.27922,-21.21321 0,-11.71573 56.98484,-21.2132 127.27922,-21.2132 70.29437,0 127.27922,9.49747 127.27922,21.2132 z"
         sodipodi:ry="21.213203"
         sodipodi:rx="127.27922"
         sodipodi:cy="158.37718"
         sodipodi:cx="353.55341"
         id="path3784"
         style="fill:#cccccc;stroke:#a8a8a8;stroke-width:4.66639471;stroke-linecap:round;stroke-linejoin:round;stroke-miterlimit:4;stroke-opacity:1;stroke-dasharray:none;stroke-dashoffset:0"
         sodipodi:type="arc"
         transform="matrix(0.42859639,0,0,0.42859639,116.12129,603.19173)" />
      <path
         style="fill:url(#linearGradient3790);fill-opacity:1;stroke:#a8a8a8;stroke-width:2;stroke-linecap:round;stroke-linejoin:round;stroke-miterlimit:4;stroke-opacity:1;stroke-dasharray:none;stroke-dashoffset:0"
         d="m 213.10462,671.49928 0,20.14404 0,0.76343 0.20091,0 c 2.34337,4.66126 25.77821,8.33085 54.35137,8.33085 28.57317,0 52.008,-3.66959 54.35138,-8.33085 l 0.0938,0 0,-0.2143 c 0.065,-0.18172 0.10715,-0.3647 0.10715,-0.54913 0,-0.18445 -0.0421,-0.36743 -0.10715,-0.54915 l 0,-19.59489 z"
         id="path3786"
         inkscape:connector-curvature="0"
         sodipodi:nodetypes="ccccscccsccc" />
      <path
         sodipodi:type="arc"
         style="fill:#cccccc;stroke:#a8a8a8;stroke-width:4.66639471;stroke-linecap:round;stroke-linejoin:round;stroke-miterlimit:4;stroke-opacity:1;stroke-dasharray:none;stroke-dashoffset:0"
         id="path3788"
         sodipodi:cx="353.55341"
         sodipodi:cy="158.37718"
         sodipodi:rx="127.27922"
         sodipodi:ry="21.213203"
         d="m 480.83263,158.37718 c 0,11.71573 -56.98485,21.21321 -127.27922,21.21321 -70.29438,0 -127.27922,-9.49748 -127.27922,-21.21321 0,-11.71573 56.98484,-21.2132 127.27922,-21.2132 70.29437,0 127.27922,9.49747 127.27922,21.2132 z"
         transform="matrix(0.42859639,0,0,0.42859639,116.12129,603.19173)" />
    </g>
    <g
       id="g3806"
       transform="matrix(0.5,0,0,0.5,242.53556,384.24957)"
       inkscape:export-filename="/home/stijn/Bureaublad/PySphereGTK/imgs/store-64.png"
       inkscape:export-xdpi="44"
       inkscape:export-ydpi="44">
      <rect
         style="fill:#ffffff;fill-opacity:1;stroke:#ffffff;stroke-width:2;stroke-linecap:round;stroke-linejoin:round;stroke-miterlimit:4;stroke-opacity:1;stroke-dasharray:none;stroke-dashoffset:0"
         id="rect3808"
         width="126"
         height="126"
         x="206.07112"
         y="641.49915" />
      <path
         sodipodi:type="arc"
         style="fill:#cccccc;stroke:#a8a8a8;stroke-width:4.66639471;stroke-linecap:round;stroke-linejoin:round;stroke-miterlimit:4;stroke-opacity:1;stroke-dasharray:none;stroke-dashoffset:0"
         id="path3810"
         sodipodi:cx="353.55341"
         sodipodi:cy="158.37718"
         sodipodi:rx="127.27922"
         sodipodi:ry="21.213203"
         d="m 480.83263,158.37718 c 0,11.71573 -56.98485,21.21321 -127.27922,21.21321 -70.29438,0 -127.27922,-9.49748 -127.27922,-21.21321 0,-11.71573 56.98484,-21.2132 127.27922,-21.2132 70.29437,0 127.27922,9.49747 127.27922,21.2132 z"
         transform="matrix(0.42859639,0,0,0.42859639,116.12129,654.62331)" />
      <path
         sodipodi:nodetypes="ccccscccsccc"
         inkscape:connector-curvature="0"
         id="path3812"
         d="m 213.10462,722.93085 0,20.14403 0,0.76344 0.20091,0 c 2.34337,4.66125 25.77821,8.33084 54.35137,8.33084 28.57317,0 52.008,-3.66959 54.35138,-8.33084 l 0.0938,0 0,-0.2143 c 0.065,-0.18171 0.10715,-0.3647 0.10715,-0.54914 0,-0.18443 -0.0421,-0.36742 -0.10715,-0.54914 l 0,-19.59489 z"
         style="fill:url(#linearGradient3862);fill-opacity:1;stroke:#a8a8a8;stroke-width:2;stroke-linecap:round;stroke-linejoin:round;stroke-miterlimit:4;stroke-opacity:1;stroke-dasharray:none;stroke-dashoffset:0" />
      <path
         d="m 480.83263,158.37718 c 0,11.71573 -56.98485,21.21321 -127.27922,21.21321 -70.29438,0 -127.27922,-9.49748 -127.27922,-21.21321 0,-11.71573 56.98484,-21.2132 127.27922,-21.2132 70.29437,0 127.27922,9.49747 127.27922,21.2132 z"
         sodipodi:ry="21.213203"
         sodipodi:rx="127.27922"
         sodipodi:cy="158.37718"
         sodipodi:cx="353.55341"
         id="path3814"
         style="fill:#cccccc;stroke:#a8a8a8;stroke-width:4.66639471;stroke-linecap:round;stroke-linejoin:round;stroke-miterlimit:4;stroke-opacity:1;stroke-dasharray:none;stroke-dashoffset:0"
         sodipodi:type="arc"
         transform="matrix(0.42859639,0,0,0.42859639,116.12129,654.62331)" />
      <path
         d="m 480.83263,158.37718 c 0,11.71573 -56.98485,21.21321 -127.27922,21.21321 -70.29438,0 -127.27922,-9.49748 -127.27922,-21.21321 0,-11.71573 56.98484,-21.2132 127.27922,-21.2132 70.29437,0 127.27922,9.49747 127.27922,21.2132 z"
         sodipodi:ry="21.213203"
         sodipodi:rx="127.27922"
         sodipodi:cy="158.37718"
         sodipodi:cx="353.55341"
         id="path3816"
         style="fill:#cccccc;stroke:#a8a8a8;stroke-width:4.66639471;stroke-linecap:round;stroke-linejoin:round;stroke-miterlimit:4;stroke-opacity:1;stroke-dasharray:none;stroke-dashoffset:0"
         sodipodi:type="arc"
         transform="matrix(0.42859639,0,0,0.42859639,116.12129,628.90752)" />
      <path
         style="fill:url(#linearGradient3864);fill-opacity:1;stroke:#a8a8a8;stroke-width:2;stroke-linecap:round;stroke-linejoin:round;stroke-miterlimit:4;stroke-opacity:1;stroke-dasharray:none;stroke-dashoffset:0"
         d="m 213.10462,697.21507 0,20.14403 0,0.76344 0.20091,0 c 2.34337,4.66125 25.77821,8.33084 54.35137,8.33084 28.57317,0 52.008,-3.66959 54.35138,-8.33084 l 0.0938,0 0,-0.2143 c 0.065,-0.18172 0.10715,-0.36471 0.10715,-0.54914 0,-0.18444 -0.0421,-0.36743 -0.10715,-0.54914 l 0,-19.59489 z"
         id="path3818"
         inkscape:connector-curvature="0"
         sodipodi:nodetypes="ccccscccsccc" />
      <path
         sodipodi:type="arc"
         style="fill:#cccccc;stroke:#a8a8a8;stroke-width:4.66639471;stroke-linecap:round;stroke-linejoin:round;stroke-miterlimit:4;stroke-opacity:1;stroke-dasharray:none;stroke-dashoffset:0"
         id="path3820"
         sodipodi:cx="353.55341"
         sodipodi:cy="158.37718"
         sodipodi:rx="127.27922"
         sodipodi:ry="21.213203"
         d="m 480.83263,158.37718 c 0,11.71573 -56.98485,21.21321 -127.27922,21.21321 -70.29438,0 -127.27922,-9.49748 -127.27922,-21.21321 0,-11.71573 56.98484,-21.2132 127.27922,-21.2132 70.29437,0 127.27922,9.49747 127.27922,21.2132 z"
         transform="matrix(0.42859639,0,0,0.42859639,116.12129,628.90752)" />
      <path
         transform="matrix(0.42859639,0,0,0.42859639,116.12129,603.19173)"
         sodipodi:type="arc"
         style="fill:#cccccc;stroke:#a8a8a8;stroke-width:4.66639471;stroke-linecap:round;stroke-linejoin:round;stroke-miterlimit:4;stroke-opacity:1;stroke-dasharray:none;stroke-dashoffset:0"
         id="path3822"
         sodipodi:cx="353.55341"
         sodipodi:cy="158.37718"
         sodipodi:rx="127.27922"
         sodipodi:ry="21.213203"
         d="m 480.83263,158.37718 c 0,11.71573 -56.98485,21.21321 -127.27922,21.21321 -70.29438,0 -127.27922,-9.49748 -127.27922,-21.21321 0,-11.71573 56.98484,-21.2132 127.27922,-21.2132 70.29437,0 127.27922,9.49747 127.27922,21.2132 z" />
      <path
         sodipodi:nodetypes="ccccscccsccc"
         inkscape:connector-curvature="0"
         id="path3824"
         d="m 213.10462,671.49928 0,20.14404 0,0.76343 0.20091,0 c 2.34337,4.66126 25.77821,8.33085 54.35137,8.33085 28.57317,0 52.008,-3.66959 54.35138,-8.33085 l 0.0938,0 0,-0.2143 c 0.065,-0.18172 0.10715,-0.3647 0.10715,-0.54913 0,-0.18445 -0.0421,-0.36743 -0.10715,-0.54915 l 0,-19.59489 z"
         style="fill:url(#linearGradient3866);fill-opacity:1;stroke:#a8a8a8;stroke-width:2;stroke-linecap:round;stroke-linejoin:round;stroke-miterlimit:4;stroke-opacity:1;stroke-dasharray:none;stroke-dashoffset:0" />
      <path
         transform="matrix(0.42859639,0,0,0.42859639,116.12129,603.19173)"
         d="m 480.83263,158.37718 c 0,11.71573 -56.98485,21.21321 -127.27922,21.21321 -70.29438,0 -127.27922,-9.49748 -127.27922,-21.21321 0,-11.71573 56.98484,-21.2132 127.27922,-21.2132 70.29437,0 127.27922,9.49747 127.27922,21.2132 z"
         sodipodi:ry="21.213203"
         sodipodi:rx="127.27922"
         sodipodi:cy="158.37718"
         sodipodi:cx="353.55341"
         id="path3826"
         style="fill:#cccccc;stroke:#a8a8a8;stroke-width:4.66639471;stroke-linecap:round;stroke-linejoin:round;stroke-miterlimit:4;stroke-opacity:1;stroke-dasharray:none;stroke-dashoffset:0"
         sodipodi:type="arc" />
    </g>
    <g
       transform="matrix(0.25,0,0,0.25,373.80334,576.37436)"
       id="g3868"
       inkscape:export-filename="/home/stijn/Bureaublad/PySphereGTK/imgs/store-32.png"
       inkscape:export-xdpi="44"
       inkscape:export-ydpi="44">
      <rect
         y="641.49915"
         x="206.07112"
         height="126"
         width="126"
         id="rect3870"
         style="fill:#ffffff;fill-opacity:1;stroke:#ffffff;stroke-width:2;stroke-linecap:round;stroke-linejoin:round;stroke-miterlimit:4;stroke-opacity:1;stroke-dasharray:none;stroke-dashoffset:0" />
      <path
         transform="matrix(0.42859639,0,0,0.42859639,116.12129,654.62331)"
         d="m 480.83263,158.37718 c 0,11.71573 -56.98485,21.21321 -127.27922,21.21321 -70.29438,0 -127.27922,-9.49748 -127.27922,-21.21321 0,-11.71573 56.98484,-21.2132 127.27922,-21.2132 70.29437,0 127.27922,9.49747 127.27922,21.2132 z"
         sodipodi:ry="21.213203"
         sodipodi:rx="127.27922"
         sodipodi:cy="158.37718"
         sodipodi:cx="353.55341"
         id="path3872"
         style="fill:#cccccc;stroke:#a8a8a8;stroke-width:4.66639471;stroke-linecap:round;stroke-linejoin:round;stroke-miterlimit:4;stroke-opacity:1;stroke-dasharray:none;stroke-dashoffset:0"
         sodipodi:type="arc" />
      <path
         style="fill:url(#linearGradient3890);fill-opacity:1;stroke:#a8a8a8;stroke-width:2;stroke-linecap:round;stroke-linejoin:round;stroke-miterlimit:4;stroke-opacity:1;stroke-dasharray:none;stroke-dashoffset:0"
         d="m 213.10462,722.93085 0,20.14403 0,0.76344 0.20091,0 c 2.34337,4.66125 25.77821,8.33084 54.35137,8.33084 28.57317,0 52.008,-3.66959 54.35138,-8.33084 l 0.0938,0 0,-0.2143 c 0.065,-0.18171 0.10715,-0.3647 0.10715,-0.54914 0,-0.18443 -0.0421,-0.36742 -0.10715,-0.54914 l 0,-19.59489 z"
         id="path3874"
         inkscape:connector-curvature="0"
         sodipodi:nodetypes="ccccscccsccc" />
      <path
         transform="matrix(0.42859639,0,0,0.42859639,116.12129,654.62331)"
         sodipodi:type="arc"
         style="fill:#cccccc;stroke:#a8a8a8;stroke-width:4.66639471;stroke-linecap:round;stroke-linejoin:round;stroke-miterlimit:4;stroke-opacity:1;stroke-dasharray:none;stroke-dashoffset:0"
         id="path3876"
         sodipodi:cx="353.55341"
         sodipodi:cy="158.37718"
         sodipodi:rx="127.27922"
         sodipodi:ry="21.213203"
         d="m 480.83263,158.37718 c 0,11.71573 -56.98485,21.21321 -127.27922,21.21321 -70.29438,0 -127.27922,-9.49748 -127.27922,-21.21321 0,-11.71573 56.98484,-21.2132 127.27922,-21.2132 70.29437,0 127.27922,9.49747 127.27922,21.2132 z" />
      <path
         transform="matrix(0.42859639,0,0,0.42859639,116.12129,628.90752)"
         sodipodi:type="arc"
         style="fill:#cccccc;stroke:#a8a8a8;stroke-width:4.66639471;stroke-linecap:round;stroke-linejoin:round;stroke-miterlimit:4;stroke-opacity:1;stroke-dasharray:none;stroke-dashoffset:0"
         id="path3878"
         sodipodi:cx="353.55341"
         sodipodi:cy="158.37718"
         sodipodi:rx="127.27922"
         sodipodi:ry="21.213203"
         d="m 480.83263,158.37718 c 0,11.71573 -56.98485,21.21321 -127.27922,21.21321 -70.29438,0 -127.27922,-9.49748 -127.27922,-21.21321 0,-11.71573 56.98484,-21.2132 127.27922,-21.2132 70.29437,0 127.27922,9.49747 127.27922,21.2132 z" />
      <path
         sodipodi:nodetypes="ccccscccsccc"
         inkscape:connector-curvature="0"
         id="path3880"
         d="m 213.10462,697.21507 0,20.14403 0,0.76344 0.20091,0 c 2.34337,4.66125 25.77821,8.33084 54.35137,8.33084 28.57317,0 52.008,-3.66959 54.35138,-8.33084 l 0.0938,0 0,-0.2143 c 0.065,-0.18172 0.10715,-0.36471 0.10715,-0.54914 0,-0.18444 -0.0421,-0.36743 -0.10715,-0.54914 l 0,-19.59489 z"
         style="fill:url(#linearGradient3892);fill-opacity:1;stroke:#a8a8a8;stroke-width:2;stroke-linecap:round;stroke-linejoin:round;stroke-miterlimit:4;stroke-opacity:1;stroke-dasharray:none;stroke-dashoffset:0" />
      <path
         transform="matrix(0.42859639,0,0,0.42859639,116.12129,628.90752)"
         d="m 480.83263,158.37718 c 0,11.71573 -56.98485,21.21321 -127.27922,21.21321 -70.29438,0 -127.27922,-9.49748 -127.27922,-21.21321 0,-11.71573 56.98484,-21.2132 127.27922,-21.2132 70.29437,0 127.27922,9.49747 127.27922,21.2132 z"
         sodipodi:ry="21.213203"
         sodipodi:rx="127.27922"
         sodipodi:cy="158.37718"
         sodipodi:cx="353.55341"
         id="path3882"
         style="fill:#cccccc;stroke:#a8a8a8;stroke-width:4.66639471;stroke-linecap:round;stroke-linejoin:round;stroke-miterlimit:4;stroke-opacity:1;stroke-dasharray:none;stroke-dashoffset:0"
         sodipodi:type="arc" />
      <path
         d="m 480.83263,158.37718 c 0,11.71573 -56.98485,21.21321 -127.27922,21.21321 -70.29438,0 -127.27922,-9.49748 -127.27922,-21.21321 0,-11.71573 56.98484,-21.2132 127.27922,-21.2132 70.29437,0 127.27922,9.49747 127.27922,21.2132 z"
         sodipodi:ry="21.213203"
         sodipodi:rx="127.27922"
         sodipodi:cy="158.37718"
         sodipodi:cx="353.55341"
         id="path3884"
         style="fill:#cccccc;stroke:#a8a8a8;stroke-width:4.66639471;stroke-linecap:round;stroke-linejoin:round;stroke-miterlimit:4;stroke-opacity:1;stroke-dasharray:none;stroke-dashoffset:0"
         sodipodi:type="arc"
         transform="matrix(0.42859639,0,0,0.42859639,116.12129,603.19173)" />
      <path
         style="fill:url(#linearGradient3894);fill-opacity:1;stroke:#a8a8a8;stroke-width:2;stroke-linecap:round;stroke-linejoin:round;stroke-miterlimit:4;stroke-opacity:1;stroke-dasharray:none;stroke-dashoffset:0"
         d="m 213.10462,671.49928 0,20.14404 0,0.76343 0.20091,0 c 2.34337,4.66126 25.77821,8.33085 54.35137,8.33085 28.57317,0 52.008,-3.66959 54.35138,-8.33085 l 0.0938,0 0,-0.2143 c 0.065,-0.18172 0.10715,-0.3647 0.10715,-0.54913 0,-0.18445 -0.0421,-0.36743 -0.10715,-0.54915 l 0,-19.59489 z"
         id="path3886"
         inkscape:connector-curvature="0"
         sodipodi:nodetypes="ccccscccsccc" />
      <path
         sodipodi:type="arc"
         style="fill:#cccccc;stroke:#a8a8a8;stroke-width:4.66639471;stroke-linecap:round;stroke-linejoin:round;stroke-miterlimit:4;stroke-opacity:1;stroke-dasharray:none;stroke-dashoffset:0"
         id="path3888"
         sodipodi:cx="353.55341"
         sodipodi:cy="158.37718"
         sodipodi:rx="127.27922"
         sodipodi:ry="21.213203"
         d="m 480.83263,158.37718 c 0,11.71573 -56.98485,21.21321 -127.27922,21.21321 -70.29438,0 -127.27922,-9.49748 -127.27922,-21.21321 0,-11.71573 56.98484,-21.2132 127.27922,-21.2132 70.29437,0 127.27922,9.49747 127.27922,21.2132 z"
         transform="matrix(0.42859639,0,0,0.42859639,116.12129,603.19173)" />
    </g>
    <g
       id="g3896"
       transform="matrix(0.125,0,0,0.125,439.43723,672.43675)"
       inkscape:export-filename="/home/stijn/Bureaublad/PySphereGTK/imgs/store-16.png"
       inkscape:export-xdpi="44"
       inkscape:export-ydpi="44">
      <rect
         style="fill:#ffffff;fill-opacity:1;stroke:#ffffff;stroke-width:2;stroke-linecap:round;stroke-linejoin:round;stroke-miterlimit:4;stroke-opacity:1;stroke-dasharray:none;stroke-dashoffset:0"
         id="rect3898"
         width="126"
         height="126"
         x="206.07112"
         y="641.49915" />
      <path
         sodipodi:type="arc"
         style="fill:#cccccc;stroke:#a8a8a8;stroke-width:4.66639471;stroke-linecap:round;stroke-linejoin:round;stroke-miterlimit:4;stroke-opacity:1;stroke-dasharray:none;stroke-dashoffset:0"
         id="path3900"
         sodipodi:cx="353.55341"
         sodipodi:cy="158.37718"
         sodipodi:rx="127.27922"
         sodipodi:ry="21.213203"
         d="m 480.83263,158.37718 c 0,11.71573 -56.98485,21.21321 -127.27922,21.21321 -70.29438,0 -127.27922,-9.49748 -127.27922,-21.21321 0,-11.71573 56.98484,-21.2132 127.27922,-21.2132 70.29437,0 127.27922,9.49747 127.27922,21.2132 z"
         transform="matrix(0.42859639,0,0,0.42859639,116.12129,654.62331)" />
      <path
         sodipodi:nodetypes="ccccscccsccc"
         inkscape:connector-curvature="0"
         id="path3902"
         d="m 213.10462,722.93085 0,20.14403 0,0.76344 0.20091,0 c 2.34337,4.66125 25.77821,8.33084 54.35137,8.33084 28.57317,0 52.008,-3.66959 54.35138,-8.33084 l 0.0938,0 0,-0.2143 c 0.065,-0.18171 0.10715,-0.3647 0.10715,-0.54914 0,-0.18443 -0.0421,-0.36742 -0.10715,-0.54914 l 0,-19.59489 z"
         style="fill:url(#linearGradient3918);fill-opacity:1;stroke:#a8a8a8;stroke-width:2;stroke-linecap:round;stroke-linejoin:round;stroke-miterlimit:4;stroke-opacity:1;stroke-dasharray:none;stroke-dashoffset:0" />
      <path
         d="m 480.83263,158.37718 c 0,11.71573 -56.98485,21.21321 -127.27922,21.21321 -70.29438,0 -127.27922,-9.49748 -127.27922,-21.21321 0,-11.71573 56.98484,-21.2132 127.27922,-21.2132 70.29437,0 127.27922,9.49747 127.27922,21.2132 z"
         sodipodi:ry="21.213203"
         sodipodi:rx="127.27922"
         sodipodi:cy="158.37718"
         sodipodi:cx="353.55341"
         id="path3904"
         style="fill:#cccccc;stroke:#a8a8a8;stroke-width:4.66639471;stroke-linecap:round;stroke-linejoin:round;stroke-miterlimit:4;stroke-opacity:1;stroke-dasharray:none;stroke-dashoffset:0"
         sodipodi:type="arc"
         transform="matrix(0.42859639,0,0,0.42859639,116.12129,654.62331)" />
      <path
         d="m 480.83263,158.37718 c 0,11.71573 -56.98485,21.21321 -127.27922,21.21321 -70.29438,0 -127.27922,-9.49748 -127.27922,-21.21321 0,-11.71573 56.98484,-21.2132 127.27922,-21.2132 70.29437,0 127.27922,9.49747 127.27922,21.2132 z"
         sodipodi:ry="21.213203"
         sodipodi:rx="127.27922"
         sodipodi:cy="158.37718"
         sodipodi:cx="353.55341"
         id="path3906"
         style="fill:#cccccc;stroke:#a8a8a8;stroke-width:4.66639471;stroke-linecap:round;stroke-linejoin:round;stroke-miterlimit:4;stroke-opacity:1;stroke-dasharray:none;stroke-dashoffset:0"
         sodipodi:type="arc"
         transform="matrix(0.42859639,0,0,0.42859639,116.12129,628.90752)" />
      <path
         style="fill:url(#linearGradient3920);fill-opacity:1;stroke:#a8a8a8;stroke-width:2;stroke-linecap:round;stroke-linejoin:round;stroke-miterlimit:4;stroke-opacity:1;stroke-dasharray:none;stroke-dashoffset:0"
         d="m 213.10462,697.21507 0,20.14403 0,0.76344 0.20091,0 c 2.34337,4.66125 25.77821,8.33084 54.35137,8.33084 28.57317,0 52.008,-3.66959 54.35138,-8.33084 l 0.0938,0 0,-0.2143 c 0.065,-0.18172 0.10715,-0.36471 0.10715,-0.54914 0,-0.18444 -0.0421,-0.36743 -0.10715,-0.54914 l 0,-19.59489 z"
         id="path3908"
         inkscape:connector-curvature="0"
         sodipodi:nodetypes="ccccscccsccc" />
      <path
         sodipodi:type="arc"
         style="fill:#cccccc;stroke:#a8a8a8;stroke-width:4.66639471;stroke-linecap:round;stroke-linejoin:round;stroke-miterlimit:4;stroke-opacity:1;stroke-dasharray:none;stroke-dashoffset:0"
         id="path3910"
         sodipodi:cx="353.55341"
         sodipodi:cy="158.37718"
         sodipodi:rx="127.27922"
         sodipodi:ry="21.213203"
         d="m 480.83263,158.37718 c 0,11.71573 -56.98485,21.21321 -127.27922,21.21321 -70.29438,0 -127.27922,-9.49748 -127.27922,-21.21321 0,-11.71573 56.98484,-21.2132 127.27922,-21.2132 70.29437,0 127.27922,9.49747 127.27922,21.2132 z"
         transform="matrix(0.42859639,0,0,0.42859639,116.12129,628.90752)" />
      <path
         transform="matrix(0.42859639,0,0,0.42859639,116.12129,603.19173)"
         sodipodi:type="arc"
         style="fill:#cccccc;stroke:#a8a8a8;stroke-width:4.66639471;stroke-linecap:round;stroke-linejoin:round;stroke-miterlimit:4;stroke-opacity:1;stroke-dasharray:none;stroke-dashoffset:0"
         id="path3912"
         sodipodi:cx="353.55341"
         sodipodi:cy="158.37718"
         sodipodi:rx="127.27922"
         sodipodi:ry="21.213203"
         d="m 480.83263,158.37718 c 0,11.71573 -56.98485,21.21321 -127.27922,21.21321 -70.29438,0 -127.27922,-9.49748 -127.27922,-21.21321 0,-11.71573 56.98484,-21.2132 127.27922,-21.2132 70.29437,0 127.27922,9.49747 127.27922,21.2132 z" />
      <path
         sodipodi:nodetypes="ccccscccsccc"
         inkscape:connector-curvature="0"
         id="path3914"
         d="m 213.10462,671.49928 0,20.14404 0,0.76343 0.20091,0 c 2.34337,4.66126 25.77821,8.33085 54.35137,8.33085 28.57317,0 52.008,-3.66959 54.35138,-8.33085 l 0.0938,0 0,-0.2143 c 0.065,-0.18172 0.10715,-0.3647 0.10715,-0.54913 0,-0.18445 -0.0421,-0.36743 -0.10715,-0.54915 l 0,-19.59489 z"
         style="fill:url(#linearGradient3922);fill-opacity:1;stroke:#a8a8a8;stroke-width:2;stroke-linecap:round;stroke-linejoin:round;stroke-miterlimit:4;stroke-opacity:1;stroke-dasharray:none;stroke-dashoffset:0" />
      <path
         transform="matrix(0.42859639,0,0,0.42859639,116.12129,603.19173)"
         d="m 480.83263,158.37718 c 0,11.71573 -56.98485,21.21321 -127.27922,21.21321 -70.29438,0 -127.27922,-9.49748 -127.27922,-21.21321 0,-11.71573 56.98484,-21.2132 127.27922,-21.2132 70.29437,0 127.27922,9.49747 127.27922,21.2132 z"
         sodipodi:ry="21.213203"
         sodipodi:rx="127.27922"
         sodipodi:cy="158.37718"
         sodipodi:cx="353.55341"
         id="path3916"
         style="fill:#cccccc;stroke:#a8a8a8;stroke-width:4.66639471;stroke-linecap:round;stroke-linejoin:round;stroke-miterlimit:4;stroke-opacity:1;stroke-dasharray:none;stroke-dashoffset:0"
         sodipodi:type="arc" />
    </g>
    <rect
       style="fill:#ffffff;fill-opacity:1;stroke:#58b6ff;stroke-width:2;stroke-linecap:round;stroke-linejoin:round;stroke-miterlimit:4;stroke-opacity:1;stroke-dasharray:none;stroke-dashoffset:0"
       id="rect3924"
       width="90.913727"
       height="90.913727"
       x="247.48738"
       y="297.77823"
       rx="9.5964489"
       ry="9.5964489" />
    <rect
       ry="9.5964489"
       rx="9.5964489"
       y="301.27277"
       x="250.98193"
       height="83.924622"
       width="83.924622"
       id="rect3926"
       style="fill:#0086ed;fill-opacity:1;stroke:#58b6ff;stroke-width:1.84624754999999996;stroke-linecap:round;stroke-linejoin:round;stroke-miterlimit:4;stroke-opacity:1;stroke-dasharray:none;stroke-dashoffset:0" />
    <rect
       ry="9.5964489"
       rx="9.5964489"
       y="317.77823"
       x="287.48737"
       height="90.913727"
       width="90.913727"
       id="rect3928"
       style="fill:#ffffff;fill-opacity:1;stroke:#58b6ff;stroke-width:2;stroke-linecap:round;stroke-linejoin:round;stroke-miterlimit:4;stroke-opacity:1;stroke-dasharray:none;stroke-dashoffset:0" />
    <rect
       style="fill:#0086ed;fill-opacity:1;stroke:#58b6ff;stroke-width:1.84624755;stroke-linecap:round;stroke-linejoin:round;stroke-miterlimit:4;stroke-opacity:1;stroke-dasharray:none;stroke-dashoffset:0"
       id="rect3930"
       width="83.924622"
       height="83.924622"
       x="290.98193"
       y="321.27277"
       rx="9.5964489"
       ry="9.5964489" />
    <path
       style="fill:url(#linearGradient3941);fill-opacity:1;stroke:none"
       d="m 274.28571,338.07646 55.71429,28 -55.71429,27.71428 z"
       id="rect3932"
       inkscape:connector-curvature="0"
       sodipodi:nodetypes="cccc" />
    <rect
       ry="9.5964489"
       rx="9.5964489"
       y="482.655"
       x="107.45041"
       height="87.552711"
       width="87.552711"
       id="rect3943"
       style="fill:#ffffff;fill-opacity:1;stroke:#58b6ff;stroke-width:1.92606139;stroke-linecap:round;stroke-linejoin:round;stroke-miterlimit:4;stroke-opacity:1;stroke-dasharray:none;stroke-dashoffset:0"
       inkscape:export-filename="/home/stijn/Bureaublad/PySphereGTK/imgs/vm-128.png"
       inkscape:export-xdpi="44"
       inkscape:export-ydpi="44" />
    <rect
       style="fill:#0086ed;fill-opacity:1;stroke:#58b6ff;stroke-width:1.77799308;stroke-linecap:round;stroke-linejoin:round;stroke-miterlimit:4;stroke-opacity:1;stroke-dasharray:none;stroke-dashoffset:0"
       id="rect3945"
       width="80.821991"
       height="80.821991"
       x="110.81577"
       y="486.02032"
       rx="9.5964489"
       ry="9.5964489"
       inkscape:export-filename="/home/stijn/Bureaublad/PySphereGTK/imgs/vm-128.png"
       inkscape:export-xdpi="44"
       inkscape:export-ydpi="44" />
    <rect
       style="fill:#ffffff;fill-opacity:1;stroke:#58b6ff;stroke-width:1.92606139;stroke-linecap:round;stroke-linejoin:round;stroke-miterlimit:4;stroke-opacity:1;stroke-dasharray:none;stroke-dashoffset:0"
       id="rect3947"
       width="87.552711"
       height="87.552711"
       x="145.97162"
       y="521.17621"
       rx="9.5964489"
       ry="9.5964489"
       inkscape:export-filename="/home/stijn/Bureaublad/PySphereGTK/imgs/vm-128.png"
       inkscape:export-xdpi="44"
       inkscape:export-ydpi="44" />
    <rect
       ry="9.5964489"
       rx="9.5964489"
       y="524.54156"
       x="149.33701"
       height="80.821991"
       width="80.821991"
       id="rect3949"
       style="fill:#0086ed;fill-opacity:1;stroke:#58b6ff;stroke-width:1.77799308;stroke-linecap:round;stroke-linejoin:round;stroke-miterlimit:4;stroke-opacity:1;stroke-dasharray:none;stroke-dashoffset:0"
       inkscape:export-filename="/home/stijn/Bureaublad/PySphereGTK/imgs/vm-128.png"
       inkscape:export-xdpi="44"
       inkscape:export-ydpi="44" />
    <rect
       style="fill:#2fde00;fill-opacity:1;stroke:none"
       id="rect3955"
       width="21.213203"
       height="60.609154"
       x="120.82242"
       y="306.47369" />
    <rect
       y="306.47369"
       x="120.82242"
       height="60.609154"
       width="21.213203"
       id="rect3957"
       style="fill:#2fde00;fill-opacity:1;stroke:none" />
    <rect
       style="fill:#2fde00;fill-opacity:1;stroke:none"
       id="rect3959"
       width="21.213203"
       height="60.609154"
       x="150.82242"
       y="306.47369" />
    <rect
       style="fill:#ffffff;fill-opacity:1;stroke:#58b6ff;stroke-width:0.96303105;stroke-linecap:round;stroke-linejoin:round;stroke-miterlimit:4;stroke-opacity:1;stroke-dasharray:none;stroke-dashoffset:0"
       id="rect3971"
       width="43.776371"
       height="43.776371"
       x="246.96892"
       y="546.17346"
       rx="4.7982264"
       ry="4.7982264"
       inkscape:export-filename="/home/stijn/Bureaublad/PySphereGTK/imgs/vm-64.png"
       inkscape:export-xdpi="44"
       inkscape:export-ydpi="44" />
    <rect
       ry="4.7982264"
       rx="4.7982264"
       y="547.85614"
       x="248.6516"
       height="40.411011"
       width="40.411011"
       id="rect3973"
       style="fill:#0086ed;fill-opacity:1;stroke:#58b6ff;stroke-width:0.8889969;stroke-linecap:round;stroke-linejoin:round;stroke-miterlimit:4;stroke-opacity:1;stroke-dasharray:none;stroke-dashoffset:0"
       inkscape:export-filename="/home/stijn/Bureaublad/PySphereGTK/imgs/vm-64.png"
       inkscape:export-xdpi="44"
       inkscape:export-ydpi="44" />
    <rect
       ry="4.7982264"
       rx="4.7982264"
       y="565.43408"
       x="266.22952"
       height="43.776371"
       width="43.776371"
       id="rect3975"
       style="fill:#ffffff;fill-opacity:1;stroke:#58b6ff;stroke-width:0.96303105;stroke-linecap:round;stroke-linejoin:round;stroke-miterlimit:4;stroke-opacity:1;stroke-dasharray:none;stroke-dashoffset:0"
       inkscape:export-filename="/home/stijn/Bureaublad/PySphereGTK/imgs/vm-64.png"
       inkscape:export-xdpi="44"
       inkscape:export-ydpi="44" />
    <rect
       style="fill:#0086ed;fill-opacity:1;stroke:#58b6ff;stroke-width:0.8889969;stroke-linecap:round;stroke-linejoin:round;stroke-miterlimit:4;stroke-opacity:1;stroke-dasharray:none;stroke-dashoffset:0"
       id="rect3977"
       width="40.411011"
       height="40.411011"
       x="267.91223"
       y="567.11676"
       rx="4.7982264"
       ry="4.7982264"
       inkscape:export-filename="/home/stijn/Bureaublad/PySphereGTK/imgs/vm-64.png"
       inkscape:export-xdpi="44"
       inkscape:export-ydpi="44" />
    <rect
       ry="2.3991134"
       rx="2.3991134"
       y="577.93274"
       x="326.72818"
       height="21.888187"
       width="21.888187"
       id="rect3987"
       style="fill:#ffffff;fill-opacity:1;stroke:#58b6ff;stroke-width:0.48151559;stroke-linecap:round;stroke-linejoin:round;stroke-miterlimit:4;stroke-opacity:1;stroke-dasharray:none;stroke-dashoffset:0"
       inkscape:export-filename="/home/stijn/Bureaublad/PySphereGTK/imgs/vm-32.png"
       inkscape:export-xdpi="44"
       inkscape:export-ydpi="44" />
    <rect
       style="fill:#0086ed;fill-opacity:1;stroke:#58b6ff;stroke-width:0.44449851;stroke-linecap:round;stroke-linejoin:round;stroke-miterlimit:4;stroke-opacity:1;stroke-dasharray:none;stroke-dashoffset:0"
       id="rect3989"
       width="20.205507"
       height="20.205507"
       x="327.56952"
       y="578.77405"
       rx="2.3991134"
       ry="2.3991134"
       inkscape:export-filename="/home/stijn/Bureaublad/PySphereGTK/imgs/vm-32.png"
       inkscape:export-xdpi="44"
       inkscape:export-ydpi="44" />
    <rect
       style="fill:#ffffff;fill-opacity:1;stroke:#58b6ff;stroke-width:0.48151559;stroke-linecap:round;stroke-linejoin:round;stroke-miterlimit:4;stroke-opacity:1;stroke-dasharray:none;stroke-dashoffset:0"
       id="rect3991"
       width="21.888187"
       height="21.888187"
       x="336.35846"
       y="587.56305"
       rx="2.3991134"
       ry="2.3991134"
       inkscape:export-filename="/home/stijn/Bureaublad/PySphereGTK/imgs/vm-32.png"
       inkscape:export-xdpi="44"
       inkscape:export-ydpi="44" />
    <rect
       ry="2.3991134"
       rx="2.3991134"
       y="588.40436"
       x="337.19983"
       height="20.205507"
       width="20.205507"
       id="rect3993"
       style="fill:#0086ed;fill-opacity:1;stroke:#58b6ff;stroke-width:0.44449851;stroke-linecap:round;stroke-linejoin:round;stroke-miterlimit:4;stroke-opacity:1;stroke-dasharray:none;stroke-dashoffset:0"
       inkscape:export-filename="/home/stijn/Bureaublad/PySphereGTK/imgs/vm-32.png"
       inkscape:export-xdpi="44"
       inkscape:export-ydpi="44" />
    <rect
       style="fill:#ffffff;fill-opacity:1;stroke:#58b6ff;stroke-width:0.24075793;stroke-linecap:round;stroke-linejoin:round;stroke-miterlimit:4;stroke-opacity:1;stroke-dasharray:none;stroke-dashoffset:0"
       id="rect3995"
       width="10.944099"
       height="10.944099"
       x="366.60779"
       y="593.81238"
       rx="1.1995573"
       ry="1.1995573"
       inkscape:export-filename="/home/stijn/Bureaublad/PySphereGTK/imgs/vm-16.png"
       inkscape:export-xdpi="44"
       inkscape:export-ydpi="44" />
    <rect
       ry="1.1995573"
       rx="1.1995573"
       y="594.23303"
       x="367.02847"
       height="10.102759"
       width="10.102759"
       id="rect3997"
       style="fill:#0086ed;fill-opacity:1;stroke:#58b6ff;stroke-width:0.22224937;stroke-linecap:round;stroke-linejoin:round;stroke-miterlimit:4;stroke-opacity:1;stroke-dasharray:none;stroke-dashoffset:0"
       inkscape:export-filename="/home/stijn/Bureaublad/PySphereGTK/imgs/vm-16.png"
       inkscape:export-xdpi="44"
       inkscape:export-ydpi="44" />
    <rect
       ry="1.1995573"
       rx="1.1995573"
       y="598.6275"
       x="371.42294"
       height="10.944099"
       width="10.944099"
       id="rect3999"
       style="fill:#ffffff;fill-opacity:1;stroke:#58b6ff;stroke-width:0.24075793;stroke-linecap:round;stroke-linejoin:round;stroke-miterlimit:4;stroke-opacity:1;stroke-dasharray:none;stroke-dashoffset:0"
       inkscape:export-filename="/home/stijn/Bureaublad/PySphereGTK/imgs/vm-16.png"
       inkscape:export-xdpi="44"
       inkscape:export-ydpi="44" />
    <rect
       style="fill:#0086ed;fill-opacity:1;stroke:#58b6ff;stroke-width:0.22224937;stroke-linecap:round;stroke-linejoin:round;stroke-miterlimit:4;stroke-opacity:1;stroke-dasharray:none;stroke-dashoffset:0"
       id="rect4001"
       width="10.102759"
       height="10.102759"
       x="371.84363"
       y="599.04816"
       rx="1.1995573"
       ry="1.1995573"
       inkscape:export-filename="/home/stijn/Bureaublad/PySphereGTK/imgs/vm-16.png"
       inkscape:export-xdpi="44"
       inkscape:export-ydpi="44" />
  </g>
</svg>
